<svg width="20" height="24" viewBox="0 0 20 24" fill="none" xmlns="http://www.w3.org/2000/svg">
<path d="M8.14333 15.8726C7.51214 19.1773 6.74296 22.3452 4.46181 24C3.75862 19.0057 5.49499 15.2558 6.30257 11.2743C4.9262 8.95832 6.46817 4.30002 9.3685 5.4484C12.9384 6.85957 6.27737 14.0546 10.7485 14.9546C15.4176 15.8918 17.3231 6.85477 14.4276 3.91603C10.2457 -0.32948 2.25266 3.81643 3.23664 9.8943C3.47543 11.3799 5.0102 11.8299 3.84982 13.8806C1.17268 13.2878 0.373497 11.1759 0.476695 8.36073C0.642291 3.75283 4.61541 0.528502 8.60172 0.0809118C13.6428 -0.484276 18.3743 1.93247 19.0283 6.67357C19.7639 12.0267 16.7531 17.8249 11.3617 17.4073C9.90009 17.2933 9.28811 16.5686 8.14333 15.8726Z" fill="white"/>
</svg>
