<svg width="21" height="19" viewBox="0 0 21 19" fill="none" xmlns="http://www.w3.org/2000/svg">
<path d="M10.5 15.5595L5.83124 18.372C5.62499 18.5032 5.40936 18.5595 5.18436 18.5407C4.95936 18.522 4.76249 18.447 4.59374 18.3157C4.42499 18.1845 4.29374 18.0206 4.19999 17.8241C4.10624 17.6269 4.08749 17.4064 4.14374 17.1626L5.38124 11.847L1.24686 8.2751C1.05936 8.10635 0.942363 7.91397 0.895863 7.69797C0.848613 7.48272 0.862488 7.27197 0.937488 7.06572C1.01249 6.85947 1.12499 6.69072 1.27499 6.55947C1.42499 6.42822 1.63124 6.34385 1.89374 6.30635L7.34999 5.82822L9.45936 0.821973C9.55311 0.596973 9.69861 0.428223 9.89586 0.315723C10.0924 0.203223 10.2937 0.146973 10.5 0.146973C10.7062 0.146973 10.908 0.203223 11.1052 0.315723C11.3017 0.428223 11.4469 0.596973 11.5406 0.821973L13.65 5.82822L19.1062 6.30635C19.3687 6.34385 19.575 6.42822 19.725 6.55947C19.875 6.69072 19.9875 6.85947 20.0625 7.06572C20.1375 7.27197 20.1517 7.48272 20.1052 7.69797C20.058 7.91397 19.9406 8.10635 19.7531 8.2751L15.6187 11.847L16.8562 17.1626C16.9125 17.4064 16.8937 17.6269 16.8 17.8241C16.7062 18.0206 16.575 18.1845 16.4062 18.3157C16.2375 18.447 16.0406 18.522 15.8156 18.5407C15.5906 18.5595 15.375 18.5032 15.1687 18.372L10.5 15.5595Z" fill="#F2C94C"/>
</svg>
